# xmcd CD database file
#
# Track frame offsets:
#	182
#	13473
#	24908
#	38431
#	49113
#	62229
#	76048
#	87099
#	99700
#	111035
#	125052
#	138353
#	148879
#	160584
#	174162
#	187740
#	200079
#	212347
#	224427
#	237523
#	251006
#	264076
#	276741
#	287905
#
# Disc length: 4000 seconds
#
# Revision: 0
# Processed by: cddbd v1.5.1PL0 Copyright (c) Steve Scherf et al.
# Submitted via: CDex 1.51
#
DISCID=5b0f9e18
DTITLE=Roy Brown - 1947-1949
DYEAR=2001
DGENRE=Blues
TTITLE0=Deep Sea Diver
TTITLE1=Bye Baby Bye
TTITLE2=Good Rockin Tonight
TTITLE3=Lolly Pop Mama
TTITLE4=Special Lesson No 1
TTITLE5=Woman's A Wonderful Thing
TTITLE6=Mighty Mighty Man
TTITLE7=Miss Fanny Brown
TTITLE8=Whose Hat Is That?
TTITLE9=Long Bout Midnight
TTITLE10='Fore Day In The Morning
TTITLE11=Rainy Weather Blues
TTITLE12=Miss Fanny Brown Returns
TTITLE13=Roy Brown's Boogie
TTITLE14=Judgement Day Blues
TTITLE15=Rockin' At Midnight
TTITLE16=Please Don't Go
TTITLE17=Riding High
TTITLE18=Boogie At Midnight
TTITLE19=The Blues Got Me Again
TTITLE20=I Feel That Young Man's Rhythm
TTITLE21=End Of My Journey
TTITLE22=Butcher Pete - Part 1
TTITLE23=Butcher Pete - Part 2
EXTD=YEAR: 2001
EXTT0=
EXTT1=
EXTT2=
EXTT3=
EXTT4=
EXTT5=
EXTT6=
EXTT7=
EXTT8=
EXTT9=
EXTT10=
EXTT11=
EXTT12=
EXTT13=
EXTT14=
EXTT15=
EXTT16=
EXTT17=
EXTT18=
EXTT19=
EXTT20=
EXTT21=
EXTT22=
EXTT23=
PLAYORDER=
